<?xml version="1.0" standalone="no"?>
<!DOCTYPE svg PUBLIC "-//W3C//DTD SVG 20010904//EN"
 "http://www.w3.org/TR/2001/REC-SVG-20010904/DTD/svg10.dtd">
<svg version="1.0" xmlns="http://www.w3.org/2000/svg"
 width="210.000000pt" height="240.000000pt" viewBox="0 0 210.000000 240.000000"
 preserveAspectRatio="xMidYMid meet">

<g transform="translate(0.000000,240.000000) scale(0.100000,-0.100000)"
fill="#000000" stroke="none">
<path d="M925 2235 c-63 -31 -60 5 -65 -749 l-5 -689 -274 287 c-151 158 -286
292 -300 298 -48 18 -90 0 -159 -65 -74 -72 -92 -101 -92 -154 0 -37 16 -53
482 -520 324 -323 492 -484 510 -489 16 -3 40 -3 55 0 19 5 187 166 511 489
466 467 482 483 482 520 0 52 -18 82 -92 153 -127 122 -117 127 -455 -228
l-278 -291 -5 689 c-5 756 -2 719 -66 749 -43 20 -208 20 -249 0z"/>
</g>
</svg>
