<?xml version="1.0" standalone="no"?>
<!DOCTYPE svg PUBLIC "-//W3C//DTD SVG 20010904//EN"
 "http://www.w3.org/TR/2001/REC-SVG-20010904/DTD/svg10.dtd">
<svg version="1.0" xmlns="http://www.w3.org/2000/svg"
 width="120.000000pt" height="120.000000pt" viewBox="0 0 120.000000 120.000000"
 preserveAspectRatio="xMidYMid meet">

<g transform="translate(0.000000,120.000000) scale(0.100000,-0.100000)"
fill="#000000" stroke="none">
<path d="M744 1176 c-103 -26 -204 -110 -247 -204 -29 -65 -35 -185 -13 -253
l17 -51 -75 -78 c-60 -61 -76 -84 -76 -107 0 -40 -56 -95 -88 -86 -35 9 -105
-62 -98 -99 6 -33 -16 -54 -53 -50 -43 5 -63 -26 -67 -108 -4 -68 -3 -72 25
-100 22 -23 39 -30 67 -30 36 0 50 12 285 246 l246 245 51 -16 c75 -25 190
-17 262 16 153 72 237 248 196 409 -50 194 -245 314 -432 266z m287 -145 c35
-35 38 -77 9 -114 -60 -77 -187 -6 -150 83 27 65 92 79 141 31z"/>
</g>
</svg>
